<mxfile host="65bd71144e">
    <diagram id="EIVPPiVosSGdDInk07Ax" name="Page-1">
        <mxGraphModel dx="379" dy="338" grid="1" gridSize="10" guides="1" tooltips="1" connect="1" arrows="1" fold="1" page="1" pageScale="1" pageWidth="1200" pageHeight="1920" background="#000000" math="0" shadow="0">
            <root>
                <mxCell id="0"/>
                <mxCell id="1" parent="0"/>
                <mxCell id="9" style="edgeStyle=none;html=1;entryX=0.5;entryY=0;entryDx=0;entryDy=0;dashed=1;strokeColor=#FFFFFF;" parent="1" source="2" target="3" edge="1">
                    <mxGeometry relative="1" as="geometry"/>
                </mxCell>
                <mxCell id="2" value="#PruebaHerencia" style="html=1;fillColor=#f5f5f5;fontColor=#333333;strokeColor=#666666;" parent="1" vertex="1">
                    <mxGeometry x="380" y="90" width="142" height="50" as="geometry"/>
                </mxCell>
                <mxCell id="46" style="edgeStyle=none;html=1;exitX=0.5;exitY=1;exitDx=0;exitDy=0;strokeColor=#FFFFFF;" parent="1" source="3" target="41" edge="1">
                    <mxGeometry relative="1" as="geometry"/>
                </mxCell>
                <mxCell id="53" style="edgeStyle=none;html=1;exitX=0;exitY=1;exitDx=0;exitDy=0;entryX=1;entryY=0;entryDx=0;entryDy=0;endArrow=open;endFill=0;dashed=1;dashPattern=8 8;strokeColor=#FFFFFF;" edge="1" parent="1" source="3" target="18">
                    <mxGeometry relative="1" as="geometry"/>
                </mxCell>
                <mxCell id="54" style="edgeStyle=none;html=1;exitX=1;exitY=1;exitDx=0;exitDy=0;entryX=0;entryY=0;entryDx=0;entryDy=0;dashed=1;dashPattern=8 8;endArrow=open;endFill=0;strokeColor=#FFFFFF;" edge="1" parent="1" source="3" target="10">
                    <mxGeometry relative="1" as="geometry"/>
                </mxCell>
                <mxCell id="3" value="#MapaMundial" style="swimlane;fontStyle=1;align=center;verticalAlign=middle;childLayout=stackLayout;horizontal=1;startSize=29;horizontalStack=0;resizeParent=1;resizeParentMax=0;resizeLast=0;collapsible=0;marginBottom=0;html=1;fontFamily=Helvetica;fontSize=12;fontColor=#333333;fillColor=#f5f5f5;strokeColor=#6B6B6B;gradientColor=none;fillStyle=solid;strokeWidth=2;" parent="1" vertex="1">
                    <mxGeometry x="380" y="200" width="142" height="179" as="geometry"/>
                </mxCell>
                <mxCell id="4" value="Continentes: ArrayList" style="text;html=1;align=center;verticalAlign=middle;spacingLeft=4;spacingRight=4;overflow=hidden;rotatable=0;points=[[0,0.5],[1,0.5]];portConstraint=eastwest;fontFamily=Helvetica;fontSize=12;strokeWidth=0;fillStyle=auto;fillColor=#CFCFCF;strokeColor=none;fontColor=#333333;" parent="3" vertex="1">
                    <mxGeometry y="29" width="142" height="25" as="geometry"/>
                </mxCell>
                <mxCell id="5" value="Inicializar()" style="text;html=1;align=center;verticalAlign=middle;spacingLeft=4;spacingRight=4;overflow=hidden;rotatable=0;points=[[0,0.5],[1,0.5]];portConstraint=eastwest;fontFamily=Helvetica;fontSize=12;fillColor=#FFFFFF;fontColor=#333333;strokeColor=none;strokeWidth=0;fillStyle=auto;" parent="3" vertex="1">
                    <mxGeometry y="54" width="142" height="25" as="geometry"/>
                </mxCell>
                <mxCell id="6" value="getPaises()" style="text;html=1;align=center;verticalAlign=middle;spacingLeft=4;spacingRight=4;overflow=hidden;rotatable=0;points=[[0,0.5],[1,0.5]];portConstraint=eastwest;fontFamily=Helvetica;fontSize=12;fillColor=#FFFFFF;fontColor=#333333;strokeColor=none;strokeWidth=0;fillStyle=auto;" parent="3" vertex="1">
                    <mxGeometry y="79" width="142" height="25" as="geometry"/>
                </mxCell>
                <mxCell id="7" value="getProvincias()" style="text;html=1;align=center;verticalAlign=middle;spacingLeft=4;spacingRight=4;overflow=hidden;rotatable=0;points=[[0,0.5],[1,0.5]];portConstraint=eastwest;fontFamily=Helvetica;fontSize=12;fillColor=#FFFFFF;fontColor=#333333;strokeColor=none;strokeWidth=0;fillStyle=auto;" parent="3" vertex="1">
                    <mxGeometry y="104" width="142" height="25" as="geometry"/>
                </mxCell>
                <mxCell id="8" value="getPais()" style="text;html=1;align=center;verticalAlign=middle;spacingLeft=4;spacingRight=4;overflow=hidden;rotatable=0;points=[[0,0.5],[1,0.5]];portConstraint=eastwest;fontFamily=Helvetica;fontSize=12;fillColor=#FFFFFF;fontColor=#333333;strokeColor=none;strokeWidth=0;fillStyle=auto;" parent="3" vertex="1">
                    <mxGeometry y="129" width="142" height="25" as="geometry"/>
                </mxCell>
                <mxCell id="56" value="getLimitrofes()" style="text;html=1;align=center;verticalAlign=middle;spacingLeft=4;spacingRight=4;overflow=hidden;rotatable=0;points=[[0,0.5],[1,0.5]];portConstraint=eastwest;fontFamily=Helvetica;fontSize=12;fillColor=#FFFFFF;fontColor=#333333;strokeColor=none;strokeWidth=0;fillStyle=auto;" vertex="1" parent="3">
                    <mxGeometry y="154" width="142" height="25" as="geometry"/>
                </mxCell>
                <mxCell id="10" value="#Pais" style="swimlane;fontStyle=1;align=center;verticalAlign=middle;childLayout=stackLayout;horizontal=1;startSize=29;horizontalStack=0;resizeParent=1;resizeParentMax=0;resizeLast=0;collapsible=0;marginBottom=0;html=1;fontFamily=Helvetica;fontSize=12;fontColor=#333333;fillColor=#f5f5f5;strokeColor=#6B6B6B;gradientColor=none;fillStyle=solid;strokeWidth=2;" parent="1" vertex="1">
                    <mxGeometry x="670" y="450" width="142" height="279" as="geometry"/>
                </mxCell>
                <mxCell id="25" value="-Nombre: String" style="text;html=1;align=center;verticalAlign=middle;spacingLeft=4;spacingRight=4;overflow=hidden;rotatable=0;points=[[0,0.5],[1,0.5]];portConstraint=eastwest;fontFamily=Helvetica;fontSize=12;strokeWidth=0;fillStyle=auto;fillColor=#CFCFCF;strokeColor=none;fontColor=#333333;" parent="10" vertex="1">
                    <mxGeometry y="29" width="142" height="25" as="geometry"/>
                </mxCell>
                <mxCell id="27" value="-Capital: String" style="text;html=1;align=center;verticalAlign=middle;spacingLeft=4;spacingRight=4;overflow=hidden;rotatable=0;points=[[0,0.5],[1,0.5]];portConstraint=eastwest;fontFamily=Helvetica;fontSize=12;strokeWidth=0;fillStyle=auto;fillColor=#CFCFCF;strokeColor=none;fontColor=#333333;" parent="10" vertex="1">
                    <mxGeometry y="54" width="142" height="25" as="geometry"/>
                </mxCell>
                <mxCell id="26" value="-Fronteras: ArrayList" style="text;html=1;align=center;verticalAlign=middle;spacingLeft=4;spacingRight=4;overflow=hidden;rotatable=0;points=[[0,0.5],[1,0.5]];portConstraint=eastwest;fontFamily=Helvetica;fontSize=12;strokeWidth=0;fillStyle=auto;fillColor=#CFCFCF;strokeColor=none;fontColor=#333333;" parent="10" vertex="1">
                    <mxGeometry y="79" width="142" height="25" as="geometry"/>
                </mxCell>
                <mxCell id="28" value="-Provincias: ArrayList" style="text;html=1;align=center;verticalAlign=middle;spacingLeft=4;spacingRight=4;overflow=hidden;rotatable=0;points=[[0,0.5],[1,0.5]];portConstraint=eastwest;fontFamily=Helvetica;fontSize=12;strokeWidth=0;fillStyle=auto;fillColor=#CFCFCF;strokeColor=none;fontColor=#333333;" parent="10" vertex="1">
                    <mxGeometry y="104" width="142" height="25" as="geometry"/>
                </mxCell>
                <mxCell id="24" value="-Limitrofes: ArrayList" style="text;html=1;align=center;verticalAlign=middle;spacingLeft=4;spacingRight=4;overflow=hidden;rotatable=0;points=[[0,0.5],[1,0.5]];portConstraint=eastwest;fontFamily=Helvetica;fontSize=12;strokeWidth=0;fillStyle=auto;fillColor=#CFCFCF;strokeColor=none;fontColor=#333333;" parent="10" vertex="1">
                    <mxGeometry y="129" width="142" height="25" as="geometry"/>
                </mxCell>
                <mxCell id="11" value="get/setNombre()" style="text;html=1;align=center;verticalAlign=middle;spacingLeft=4;spacingRight=4;overflow=hidden;rotatable=0;points=[[0,0.5],[1,0.5]];portConstraint=eastwest;fontFamily=Helvetica;fontSize=12;strokeWidth=0;fillStyle=auto;fillColor=#FFFFFF;strokeColor=none;fontColor=#333333;" parent="10" vertex="1">
                    <mxGeometry y="154" width="142" height="25" as="geometry"/>
                </mxCell>
                <mxCell id="12" value="get/addLimitrofes()" style="text;html=1;align=center;verticalAlign=middle;spacingLeft=4;spacingRight=4;overflow=hidden;rotatable=0;points=[[0,0.5],[1,0.5]];portConstraint=eastwest;fontFamily=Helvetica;fontSize=12;fillColor=#FFFFFF;fontColor=#333333;strokeColor=none;strokeWidth=0;fillStyle=auto;" parent="10" vertex="1">
                    <mxGeometry y="179" width="142" height="25" as="geometry"/>
                </mxCell>
                <mxCell id="13" value="get/setCapital()" style="text;html=1;align=center;verticalAlign=middle;spacingLeft=4;spacingRight=4;overflow=hidden;rotatable=0;points=[[0,0.5],[1,0.5]];portConstraint=eastwest;fontFamily=Helvetica;fontSize=12;fillColor=#FFFFFF;fontColor=#333333;strokeColor=none;strokeWidth=0;fillStyle=auto;" parent="10" vertex="1">
                    <mxGeometry y="204" width="142" height="25" as="geometry"/>
                </mxCell>
                <mxCell id="14" value="get/sed/add/delProvincias()" style="text;html=1;align=center;verticalAlign=middle;spacingLeft=4;spacingRight=4;overflow=hidden;rotatable=0;points=[[0,0.5],[1,0.5]];portConstraint=eastwest;fontFamily=Helvetica;fontSize=12;fillColor=#FFFFFF;fontColor=#333333;strokeColor=none;strokeWidth=0;fillStyle=auto;" parent="10" vertex="1">
                    <mxGeometry y="229" width="142" height="25" as="geometry"/>
                </mxCell>
                <mxCell id="17" value="get/set/add/delFronteras()" style="text;html=1;align=center;verticalAlign=middle;spacingLeft=4;spacingRight=4;overflow=hidden;rotatable=0;points=[[0,0.5],[1,0.5]];portConstraint=eastwest;fontFamily=Helvetica;fontSize=12;fillColor=#FFFFFF;fontColor=#333333;strokeColor=none;strokeWidth=0;fillStyle=auto;" parent="10" vertex="1">
                    <mxGeometry y="254" width="142" height="25" as="geometry"/>
                </mxCell>
                <mxCell id="48" style="edgeStyle=none;html=1;exitX=1;exitY=1;exitDx=0;exitDy=0;endArrow=diamondThin;endFill=1;align=center;strokeColor=#FFFFFF;" edge="1" parent="1" source="18">
                    <mxGeometry relative="1" as="geometry">
                        <mxPoint x="670" y="680" as="targetPoint"/>
                    </mxGeometry>
                </mxCell>
                <mxCell id="49" value="Pertenece A" style="edgeLabel;html=1;align=center;verticalAlign=middle;resizable=0;points=[];" vertex="1" connectable="0" parent="48">
                    <mxGeometry x="0.0941" y="-2" relative="1" as="geometry">
                        <mxPoint as="offset"/>
                    </mxGeometry>
                </mxCell>
                <mxCell id="59" value="*" style="edgeLabel;html=1;align=center;verticalAlign=middle;resizable=0;points=[];fontSize=25;" vertex="1" connectable="0" parent="48">
                    <mxGeometry x="-0.907" relative="1" as="geometry">
                        <mxPoint x="-9" as="offset"/>
                    </mxGeometry>
                </mxCell>
                <mxCell id="60" value="1" style="edgeLabel;html=1;align=center;verticalAlign=middle;resizable=0;points=[];fontSize=25;" vertex="1" connectable="0" parent="48">
                    <mxGeometry x="0.8973" relative="1" as="geometry">
                        <mxPoint as="offset"/>
                    </mxGeometry>
                </mxCell>
                <mxCell id="18" value="#Provincia" style="swimlane;fontStyle=1;align=center;verticalAlign=middle;childLayout=stackLayout;horizontal=1;startSize=29;horizontalStack=0;resizeParent=1;resizeParentMax=0;resizeLast=0;collapsible=0;marginBottom=0;html=1;fontFamily=Helvetica;fontSize=12;fontColor=#333333;fillColor=#f5f5f5;strokeColor=#6B6B6B;gradientColor=none;fillStyle=solid;strokeWidth=2;" parent="1" vertex="1">
                    <mxGeometry x="150" y="450" width="142" height="129" as="geometry"/>
                </mxCell>
                <mxCell id="19" value="-Nombre: String" style="text;html=1;align=center;verticalAlign=middle;spacingLeft=4;spacingRight=4;overflow=hidden;rotatable=0;points=[[0,0.5],[1,0.5]];portConstraint=eastwest;fontFamily=Helvetica;fontSize=12;strokeWidth=0;fillStyle=auto;fillColor=#CFCFCF;strokeColor=none;fontColor=#333333;" parent="18" vertex="1">
                    <mxGeometry y="29" width="142" height="25" as="geometry"/>
                </mxCell>
                <mxCell id="20" value="-Pais: Pais" style="text;html=1;align=center;verticalAlign=middle;spacingLeft=4;spacingRight=4;overflow=hidden;rotatable=0;points=[[0,0.5],[1,0.5]];portConstraint=eastwest;fontFamily=Helvetica;fontSize=12;fillColor=#CFCFCF;fontColor=#333333;strokeColor=none;strokeWidth=0;fillStyle=auto;" parent="18" vertex="1">
                    <mxGeometry y="54" width="142" height="25" as="geometry"/>
                </mxCell>
                <mxCell id="21" value="get/setNombre()" style="text;html=1;align=center;verticalAlign=middle;spacingLeft=4;spacingRight=4;overflow=hidden;rotatable=0;points=[[0,0.5],[1,0.5]];portConstraint=eastwest;fontFamily=Helvetica;fontSize=12;fillColor=#FFFFFF;fontColor=#333333;strokeColor=none;strokeWidth=0;fillStyle=auto;" parent="18" vertex="1">
                    <mxGeometry y="79" width="142" height="25" as="geometry"/>
                </mxCell>
                <mxCell id="22" value="get/setPais()" style="text;html=1;align=center;verticalAlign=middle;spacingLeft=4;spacingRight=4;overflow=hidden;rotatable=0;points=[[0,0.5],[1,0.5]];portConstraint=eastwest;fontFamily=Helvetica;fontSize=12;fillColor=#FFFFFF;fontColor=#333333;strokeColor=none;strokeWidth=0;fillStyle=auto;" parent="18" vertex="1">
                    <mxGeometry y="104" width="142" height="25" as="geometry"/>
                </mxCell>
                <mxCell id="41" value="#Continente" style="swimlane;fontStyle=1;align=center;verticalAlign=middle;childLayout=stackLayout;horizontal=1;startSize=29;horizontalStack=0;resizeParent=1;resizeParentMax=0;resizeLast=0;collapsible=0;marginBottom=0;html=1;fontFamily=Helvetica;fontSize=12;fontColor=#333333;fillColor=#f5f5f5;strokeColor=#6B6B6B;gradientColor=none;fillStyle=solid;strokeWidth=2;" parent="1" vertex="1">
                    <mxGeometry x="380" y="450" width="142" height="129" as="geometry"/>
                </mxCell>
                <mxCell id="42" value="-Nombre: String" style="text;html=1;align=center;verticalAlign=middle;spacingLeft=4;spacingRight=4;overflow=hidden;rotatable=0;points=[[0,0.5],[1,0.5]];portConstraint=eastwest;fontFamily=Helvetica;fontSize=12;strokeWidth=0;fillStyle=auto;fillColor=#CFCFCF;strokeColor=none;fontColor=#333333;" parent="41" vertex="1">
                    <mxGeometry y="29" width="142" height="25" as="geometry"/>
                </mxCell>
                <mxCell id="43" value="-Paises: ArrayList" style="text;html=1;align=center;verticalAlign=middle;spacingLeft=4;spacingRight=4;overflow=hidden;rotatable=0;points=[[0,0.5],[1,0.5]];portConstraint=eastwest;fontFamily=Helvetica;fontSize=12;fillColor=#CFCFCF;fontColor=#333333;strokeColor=none;strokeWidth=0;fillStyle=auto;" parent="41" vertex="1">
                    <mxGeometry y="54" width="142" height="25" as="geometry"/>
                </mxCell>
                <mxCell id="44" value="get/setNombre()" style="text;html=1;align=center;verticalAlign=middle;spacingLeft=4;spacingRight=4;overflow=hidden;rotatable=0;points=[[0,0.5],[1,0.5]];portConstraint=eastwest;fontFamily=Helvetica;fontSize=12;fillColor=#FFFFFF;fontColor=#333333;strokeColor=none;strokeWidth=0;fillStyle=auto;" parent="41" vertex="1">
                    <mxGeometry y="79" width="142" height="25" as="geometry"/>
                </mxCell>
                <mxCell id="45" value="get/set/add/delPais()" style="text;html=1;align=center;verticalAlign=middle;spacingLeft=4;spacingRight=4;overflow=hidden;rotatable=0;points=[[0,0.5],[1,0.5]];portConstraint=eastwest;fontFamily=Helvetica;fontSize=12;fillColor=#FFFFFF;fontColor=#333333;strokeColor=none;strokeWidth=0;fillStyle=auto;" parent="41" vertex="1">
                    <mxGeometry y="104" width="142" height="25" as="geometry"/>
                </mxCell>
                <mxCell id="52" style="edgeStyle=none;html=1;exitX=0;exitY=0.5;exitDx=0;exitDy=0;exitPerimeter=0;entryX=1;entryY=0;entryDx=0;entryDy=0;endArrow=none;endFill=0;strokeColor=#FFFFFF;" edge="1" parent="1" source="51" target="10">
                    <mxGeometry relative="1" as="geometry"/>
                </mxCell>
                <mxCell id="63" value="*" style="edgeLabel;html=1;align=center;verticalAlign=middle;resizable=0;points=[];fontSize=25;" vertex="1" connectable="0" parent="52">
                    <mxGeometry x="0.8262" y="1" relative="1" as="geometry">
                        <mxPoint as="offset"/>
                    </mxGeometry>
                </mxCell>
                <mxCell id="64" value="*" style="edgeLabel;html=1;align=center;verticalAlign=middle;resizable=0;points=[];fontSize=25;" vertex="1" connectable="0" parent="52">
                    <mxGeometry x="-0.7464" y="1" relative="1" as="geometry">
                        <mxPoint as="offset"/>
                    </mxGeometry>
                </mxCell>
                <mxCell id="51" value="Tiene limítrofes con otros&lt;br&gt;objetos de la clase País" style="strokeWidth=2;html=1;shape=mxgraph.flowchart.annotation_1;align=left;pointerEvents=1;fontColor=#FFFFFF;strokeColor=#FFFFFF;" vertex="1" parent="1">
                    <mxGeometry x="890" y="430" width="50" height="40" as="geometry"/>
                </mxCell>
                <mxCell id="55" value="Pertenece A" style="edgeStyle=none;html=1;exitX=0;exitY=0.5;exitDx=0;exitDy=0;entryX=1;entryY=0.5;entryDx=0;entryDy=0;endArrow=diamondThin;endFill=1;strokeColor=#FFFFFF;" edge="1" parent="1" source="25" target="42">
                    <mxGeometry relative="1" as="geometry"/>
                </mxCell>
                <mxCell id="61" value="*" style="edgeLabel;html=1;align=center;verticalAlign=middle;resizable=0;points=[];fontSize=25;" vertex="1" connectable="0" parent="55">
                    <mxGeometry x="0.8177" y="1" relative="1" as="geometry">
                        <mxPoint x="1" as="offset"/>
                    </mxGeometry>
                </mxCell>
                <mxCell id="62" value="1" style="edgeLabel;html=1;align=center;verticalAlign=middle;resizable=0;points=[];fontSize=25;" vertex="1" connectable="0" parent="55">
                    <mxGeometry x="-0.8039" y="1" relative="1" as="geometry">
                        <mxPoint as="offset"/>
                    </mxGeometry>
                </mxCell>
            </root>
        </mxGraphModel>
    </diagram>
</mxfile>